<svg width="1155" height="165" viewBox="0 0 1155 165" fill="none" xmlns="http://www.w3.org/2000/svg">
<path d="M52.5 73.0556C50.5 71.5556 4 40.0556 4 40.0556C4 40.0556 1 39.5556 0 41.5556V116.555C0 116.555 0 118.055 0.5 119.055C1 120.555 3 122.556 3 122.556L36.5 145.556L53 157.056C53 157.056 53 157.556 54 157.056C55 156.556 55 155.556 55 155.556V77.5556C55 77.5556 54.5 74.5556 52.5 73.0556Z" fill="#E05275"/>
<path d="M126 31.0001L80 8.8445e-05H79H78C77.5 0.00017689 77 1.00009 77 1.00009V2.00009V81.5001L76.5 96.0001L74.5 98.0001C72.2176 99.9848 68.3673 102.265 67 105C66 107 66 164.5 66 164.5C66 164.5 66.5 165 67.5 165C68.5 165 69 164.5 69 164.5L123 128C123 128 125.5 126.5 126.5 125C127.5 123.5 127.932 122.049 128.5 120.5V36.5001L128 34.5001L127 32.5001L126 31.0001Z" fill="black"/>
<path d="M240.567 96.1189C240.567 99.7588 240.139 103.185 239.283 106.396C238.498 109.608 237.07 112.427 235.001 114.853C233.002 117.209 230.254 119.1 226.757 120.527C223.332 121.883 218.978 122.561 213.697 122.561C208.844 122.561 204.668 121.99 201.171 120.848C198.098 119.782 195.493 118.578 193.357 117.236C192.852 116.919 192.67 116.279 192.905 115.731L197.508 105.021C197.805 104.33 198.639 104.057 199.299 104.416C201.009 105.347 202.81 106.185 204.704 106.931C207.059 107.859 209.629 108.323 212.412 108.323C216.48 108.323 219.406 107.324 221.191 105.326C222.975 103.327 223.867 99.9729 223.867 95.2625V44.7721C223.867 43.774 224.979 43.1784 225.81 43.7318L240.01 53.1915C240.358 53.4233 240.567 53.8137 240.567 54.2318V96.1189Z" fill="black"/>
<path d="M280.316 122.561C275.106 122.561 270.61 121.848 266.827 120.42C263.045 118.921 259.905 116.887 257.407 114.318C254.98 111.677 253.16 108.573 251.947 105.004C250.805 101.365 250.234 97.3679 250.234 93.0144L251.803 44.432C251.833 43.5098 252.817 42.9366 253.634 43.3659L266.161 49.9494C266.571 50.1649 266.828 50.5895 266.829 51.0527L266.934 91.6227C266.934 94.6202 267.256 97.1895 267.898 99.3306C268.612 101.4 269.539 103.113 270.681 104.469C271.895 105.754 273.322 106.682 274.964 107.253C276.676 107.824 278.532 108.109 280.53 108.109C284.598 108.109 287.881 106.86 290.379 104.362C292.949 101.864 294.233 97.6177 294.233 91.6227V44.5002C294.233 43.5614 295.23 42.9576 296.062 43.3921L310.262 50.8056C310.675 51.0211 310.934 51.4481 310.934 51.9137V93.0144C310.934 97.3679 310.327 101.365 309.114 105.004C307.901 108.644 306.045 111.785 303.547 114.425C301.049 116.995 297.873 118.993 294.019 120.42C290.165 121.848 285.598 122.561 280.316 122.561Z" fill="black"/>
<path d="M341.876 108.323C344.231 108.323 346.158 108.145 347.657 107.788C349.227 107.36 350.476 106.824 351.404 106.182C352.331 105.468 352.974 104.648 353.331 103.72C353.687 102.792 353.866 101.757 353.866 100.615C353.866 98.1887 352.724 96.1903 350.44 94.6202C348.156 92.9787 344.231 91.2301 338.664 89.3745C336.238 88.5181 333.811 87.5546 331.384 86.4841C328.958 85.3421 326.781 83.9504 324.854 82.3089C322.927 80.5961 321.357 78.562 320.144 76.2069C318.93 73.7803 318.324 70.8541 318.324 67.4284C318.324 64.0027 318.966 60.9338 320.251 58.2217C321.535 55.4383 323.355 53.0831 325.711 51.1562C328.066 49.2292 330.921 47.7661 334.275 46.767C337.629 45.6964 341.412 45.1611 345.623 45.1611C350.618 45.1611 354.936 45.6964 358.576 46.767C361.741 47.6978 364.42 48.7096 366.614 49.8024C367.168 50.0783 367.411 50.7298 367.199 51.311L363.239 62.1346C362.98 62.8418 362.16 63.1601 361.478 62.8414C359.743 62.031 357.848 61.3118 355.793 60.684C353.295 59.8276 350.262 59.3993 346.693 59.3993C342.696 59.3993 339.806 59.9703 338.022 61.1122C336.309 62.1828 335.452 63.8599 335.452 66.1438C335.452 67.4998 335.774 68.6417 336.416 69.5695C337.058 70.4973 337.95 71.3537 339.092 72.1388C340.306 72.8525 341.662 73.5305 343.16 74.1728C344.731 74.7438 346.443 75.3504 348.299 75.9927C352.153 77.4201 355.507 78.8475 358.362 80.2749C361.217 81.6309 363.572 83.2367 365.428 85.0924C367.355 86.948 368.782 89.1247 369.71 91.6227C370.638 94.1206 371.102 97.1538 371.102 100.722C371.102 107.645 368.675 113.033 363.822 116.887C358.969 120.67 351.653 122.561 341.876 122.561C338.593 122.561 335.631 122.347 332.99 121.919C330.35 121.562 327.994 121.098 325.925 120.527C323.926 119.956 322.178 119.35 320.679 118.707C319.663 118.25 318.755 117.811 317.955 117.39C317.42 117.108 317.186 116.473 317.389 115.903L321.258 104.997C321.516 104.271 322.362 103.949 323.054 104.287C325.002 105.239 327.279 106.121 329.886 106.931C333.169 107.859 337.165 108.323 341.876 108.323Z" fill="black"/>
<path d="M429.978 46.874C430.777 46.874 431.371 47.6128 431.199 48.3929L428.703 59.7249C428.579 60.2878 428.087 60.693 427.51 60.7057L410.382 61.0851C409.702 61.1002 409.159 61.6553 409.159 62.3348V119.813C409.159 120.503 408.6 121.063 407.909 121.063H393.709C393.018 121.063 392.459 120.503 392.459 119.813V62.3622C392.459 61.6719 391.899 61.1122 391.209 61.1122H371.335C370.644 61.1122 370.085 60.5526 370.085 59.8622V48.124C370.085 47.4336 370.644 46.874 371.335 46.874H429.978Z" fill="black"/>
<path d="M436.914 48.8028C436.914 48.1859 437.364 47.6612 437.974 47.5674L452.174 45.3827C452.932 45.2662 453.614 45.852 453.614 46.6181V119.813C453.614 120.503 453.055 121.063 452.364 121.063H438.164C437.474 121.063 436.914 120.503 436.914 119.813V48.8028Z" fill="black"/>
<path d="M519.628 122.561C507.567 122.561 498.36 119.207 492.008 112.498C485.728 105.789 482.588 96.2617 482.588 83.9148C482.588 77.777 483.551 72.3172 485.478 67.5355C487.405 62.6823 490.046 58.6143 493.4 55.3313C496.754 51.9769 500.751 49.4433 505.39 47.7304C510.029 46.0176 515.061 45.1611 520.485 45.1611C523.625 45.1611 526.48 45.4109 529.049 45.9105C531.618 46.3387 533.867 46.874 535.794 47.5163C537.721 48.0873 539.326 48.6939 540.611 49.3363C541.238 49.6496 541.779 49.9289 542.236 50.1743C542.872 50.5161 543.037 51.3316 542.615 51.9179L535.146 62.3015C534.781 62.809 534.087 62.9826 533.568 62.635C532.587 61.979 533.049 61.9173 530.548 61.2193C527.55 60.3628 524.125 59.9346 520.271 59.9346C517.701 59.9346 515.168 60.3628 512.67 61.2193C510.243 62.0757 508.067 63.4674 506.14 65.3944C504.284 67.25 502.785 69.6765 501.643 72.6741C500.501 75.6716 499.93 79.3114 499.93 83.5936C499.93 87.0193 500.287 90.231 501.001 93.2285C501.786 96.1546 502.999 98.6882 504.641 100.829C506.354 102.97 508.566 104.683 511.278 105.968C513.99 107.181 517.273 107.788 521.127 107.788C523.554 107.788 525.73 107.645 527.657 107.36C529.584 107.074 531.297 106.753 532.796 106.396C534.295 105.968 535.615 105.504 536.757 105.004C537.324 104.756 536.862 104.958 536.366 105.172C535.824 105.405 536.046 105.739 536.4 106.211L543.64 115.891C544.082 116.482 543.918 117.327 543.263 117.667C541.025 118.829 538.107 119.889 534.509 120.848C530.227 121.99 525.267 122.561 519.628 122.561Z" fill="black"/>
<path d="M561.17 83.9148C561.17 87.5546 561.599 90.8376 562.455 93.7637C563.383 96.6899 564.668 99.2235 566.309 101.365C568.022 103.434 570.092 105.04 572.518 106.182C574.945 107.324 577.728 107.895 580.868 107.895C583.937 107.895 586.685 107.324 589.112 106.182C591.61 105.04 593.679 103.434 595.321 101.365C597.034 99.2235 598.318 96.6899 599.175 93.7637C600.102 90.8376 600.566 87.5546 600.566 83.9148C600.566 80.2749 600.102 76.9919 599.175 74.0658C598.318 71.0683 597.034 68.5346 595.321 66.4649C593.679 64.3238 591.61 62.6823 589.112 61.5404C586.685 60.3985 583.937 59.8276 580.868 59.8276C577.728 59.8276 574.945 60.4342 572.518 61.6475C570.092 62.7894 568.022 64.4309 566.309 66.572C564.668 68.6417 563.383 71.1753 562.455 74.1728C561.599 77.099 561.17 80.3463 561.17 83.9148ZM617.802 83.9148C617.802 90.2666 616.839 95.8691 614.912 100.722C613.056 105.504 610.487 109.536 607.204 112.819C603.921 116.031 599.995 118.458 595.428 120.099C590.931 121.741 586.078 122.561 580.868 122.561C575.801 122.561 571.019 121.741 566.523 120.099C562.027 118.458 558.102 116.031 554.747 112.819C551.393 109.536 548.752 105.504 546.825 100.722C544.898 95.8691 543.935 90.2666 543.935 83.9148C543.935 77.5629 544.934 71.9961 546.932 67.2143C548.931 62.3612 551.607 58.2931 554.961 55.0101C558.387 51.7271 562.312 49.2649 566.737 47.6234C571.234 45.9819 575.944 45.1611 580.868 45.1611C585.936 45.1611 590.717 45.9819 595.214 47.6234C599.71 49.2649 603.635 51.7271 606.99 55.0101C610.344 58.2931 612.985 62.3612 614.912 67.2143C616.839 71.9961 617.802 77.5629 617.802 83.9148Z" fill="black"/>
<path d="M676.882 121.063C676.43 121.063 676.014 120.819 675.792 120.426C671.11 112.151 666.056 103.977 660.628 95.9048C655.71 88.5913 650.514 81.6399 645.039 75.0504C644.297 74.157 642.857 74.6859 642.857 75.8474V119.813C642.857 120.503 642.297 121.063 641.607 121.063H627.621C626.93 121.063 626.371 120.503 626.371 119.813V46.4111C626.371 45.7208 626.93 45.1611 627.621 45.1611H640.099C640.431 45.1611 640.751 45.29 640.973 45.5364C643.173 47.9802 645.071 52.2934 647.781 55.5454C650.636 58.9711 653.527 62.6467 656.453 66.572C659.45 70.4259 662.412 74.4583 665.338 78.6691C667.407 81.5955 669.386 84.4505 671.277 87.2341C671.971 88.2573 673.582 87.7675 673.582 86.5307V46.4111C673.582 45.7208 674.141 45.1611 674.832 45.1611H688.925C689.615 45.1611 690.175 45.7208 690.175 46.4111V119.813C690.175 120.503 689.615 121.063 688.925 121.063H676.882Z" fill="black"/>
<path d="M752.447 121.063C751.995 121.063 751.579 120.819 751.357 120.426C746.675 112.151 741.621 103.977 736.193 95.9048C731.275 88.5913 726.079 81.6399 720.605 75.0504C719.862 74.157 718.422 74.6859 718.422 75.8474V119.813C718.422 120.503 717.863 121.063 717.172 121.063H703.186C702.495 121.063 701.936 120.503 701.936 119.813V48.124C701.936 47.4336 702.495 46.874 703.186 46.874H715.014C715.345 46.874 715.663 47.0051 715.896 47.241C718.155 49.5274 720.638 52.2955 723.347 55.5454C726.201 58.9711 729.092 62.6467 732.018 66.572C735.016 70.4259 737.977 74.4583 740.904 78.6691C742.972 81.5954 744.952 84.4505 746.842 87.2341C747.537 88.2573 749.147 87.7675 749.147 86.5307V48.1902C749.147 47.4745 749.746 46.905 750.461 46.9418L764.555 47.6692C765.219 47.7035 765.74 48.2523 765.74 48.9176V119.813C765.74 120.503 765.18 121.063 764.49 121.063H752.447Z" fill="black"/>
<path d="M778.751 121.063C778.061 121.063 777.501 120.503 777.501 119.813V48.124C777.501 47.4336 778.061 46.874 778.751 46.874H828.162C829.061 46.874 829.666 47.7952 829.309 48.6205L824.185 60.4569C823.986 60.9188 823.528 61.2157 823.025 61.2103L795.465 60.9118C794.769 60.9043 794.201 61.4661 794.201 62.1617V74.2075C794.201 74.8978 794.761 75.4575 795.451 75.4575H822.398C823.164 75.4575 823.75 76.1407 823.633 76.898L821.906 88.1009C821.812 88.7105 821.287 89.1604 820.67 89.1604H795.451C794.761 89.1604 794.201 89.7201 794.201 90.4104V105.802C794.201 106.487 794.753 107.044 795.438 107.052L823.059 107.351C823.545 107.356 823.984 107.643 824.184 108.085L829.264 119.297C829.639 120.124 829.034 121.063 828.126 121.063H778.751Z" fill="black"/>
<path d="M870.9 122.561C858.839 122.561 849.632 119.207 843.28 112.498C836.999 105.789 833.859 96.2617 833.859 83.9148C833.859 77.777 834.823 72.3172 836.75 67.5355C838.677 62.6823 841.317 58.6143 844.672 55.3313C848.026 51.9769 852.023 49.4433 856.662 47.7304C861.301 46.0176 866.332 45.1611 871.756 45.1611C874.897 45.1611 877.751 45.4109 880.321 45.9105C882.89 46.3387 885.138 46.874 887.065 47.5163C888.992 48.0873 890.598 48.6939 891.883 49.3363C892.588 49.689 893.186 49.9986 893.676 50.2653C894.244 50.5744 894.442 51.2772 894.15 51.8543L888.605 62.8005C888.288 63.4248 887.521 63.6663 886.908 63.3299C885.363 62.4828 884.333 61.9208 881.819 61.2193C878.822 60.3628 875.396 59.9346 871.542 59.9346C868.973 59.9346 866.439 60.3628 863.941 61.2193C861.515 62.0757 859.338 63.4674 857.411 65.3944C855.556 67.25 854.057 69.6765 852.915 72.6741C851.773 75.6716 851.202 79.3114 851.202 83.5936C851.202 87.0193 851.559 90.231 852.273 93.2285C853.058 96.1546 854.271 98.6882 855.912 100.829C857.625 102.97 859.838 104.683 862.55 105.968C865.262 107.181 868.545 107.788 872.399 107.788C874.825 107.788 877.002 107.645 878.929 107.36C880.856 107.074 882.569 106.753 884.068 106.396C885.566 105.968 886.887 105.504 888.029 105.004C888.284 104.893 888.379 104.805 888.382 104.732C888.412 104.093 888.277 104.48 888.605 105.029L895.101 115.929C895.453 116.519 895.264 117.284 894.656 117.604C892.403 118.79 889.444 119.871 885.78 120.848C881.498 121.99 876.538 122.561 870.9 122.561Z" fill="black"/>
<path d="M956.774 46.874C957.613 46.874 958.214 47.6856 957.969 48.4888L954.387 60.227C954.227 60.7529 953.742 61.1122 953.192 61.1122H937.338C936.647 61.1122 936.088 61.6719 936.088 62.3622V119.813C936.088 120.503 935.528 121.063 934.838 121.063H920.637C919.947 121.063 919.387 120.503 919.387 119.813V62.3622C919.387 61.6719 918.828 61.1122 918.137 61.1122H898.263C897.572 61.1122 897.013 60.5526 897.013 59.8622V48.124C897.013 47.4336 897.572 46.874 898.263 46.874H956.774Z" fill="black"/>
<rect x="1022.46" y="35.5" width="132" height="94" rx="47" fill="#E05275"/>
<path d="M1068.53 86.7881H1059.45V81.0568H1068.53C1069.94 81.0568 1071.08 80.8282 1071.96 80.371C1072.84 79.8974 1073.49 79.2443 1073.9 78.4115C1074.3 77.5788 1074.51 76.6399 1074.51 75.5948C1074.51 74.5335 1074.3 73.5456 1073.9 72.6312C1073.49 71.7168 1072.84 70.982 1071.96 70.4268C1071.08 69.8716 1069.94 69.594 1068.53 69.594H1061.99V99.5H1054.65V63.8382H1068.53C1071.32 63.8382 1073.72 64.3444 1075.71 65.3568C1077.72 66.3528 1079.25 67.7326 1080.31 69.4961C1081.38 71.2596 1081.91 73.2762 1081.91 75.5458C1081.91 77.8482 1081.38 79.8403 1080.31 81.5221C1079.25 83.204 1077.72 84.5021 1075.71 85.4165C1073.72 86.3309 1071.32 86.7881 1068.53 86.7881ZM1091.08 78.7789V99.5H1084.03V72.9986H1090.66L1091.08 78.7789ZM1099.07 72.8271L1098.94 79.3668C1098.6 79.3178 1098.18 79.2769 1097.69 79.2443C1097.22 79.1953 1096.79 79.1708 1096.4 79.1708C1095.4 79.1708 1094.53 79.3014 1093.8 79.5627C1093.08 79.8076 1092.48 80.175 1091.99 80.6649C1091.51 81.1547 1091.15 81.7507 1090.91 82.4529C1090.68 83.155 1090.55 83.9551 1090.52 84.8532L1089.1 84.4123C1089.1 82.6978 1089.27 81.1221 1089.61 79.6852C1089.95 78.2319 1090.45 76.9664 1091.11 75.8887C1091.77 74.8111 1092.59 73.9783 1093.55 73.3905C1094.52 72.8026 1095.62 72.5087 1096.86 72.5087C1097.25 72.5087 1097.65 72.5414 1098.06 72.6067C1098.47 72.6557 1098.8 72.7291 1099.07 72.8271ZM1098.03 86.5187V86.0044C1098.03 84.0612 1098.3 82.2733 1098.86 80.6404C1099.41 78.9912 1100.22 77.5624 1101.28 76.3541C1102.35 75.1458 1103.65 74.2069 1105.2 73.5374C1106.75 72.8516 1108.53 72.5087 1110.54 72.5087C1112.55 72.5087 1114.34 72.8516 1115.91 73.5374C1117.47 74.2069 1118.79 75.1458 1119.85 76.3541C1120.93 77.5624 1121.74 78.9912 1122.3 80.6404C1122.85 82.2733 1123.13 84.0612 1123.13 86.0044V86.5187C1123.13 88.4455 1122.85 90.2335 1122.3 91.8827C1121.74 93.5155 1120.93 94.9443 1119.85 96.169C1118.79 97.3773 1117.48 98.3162 1115.93 98.9856C1114.38 99.6551 1112.6 99.9899 1110.59 99.9899C1108.58 99.9899 1106.8 99.6551 1105.23 98.9856C1103.68 98.3162 1102.36 97.3773 1101.28 96.169C1100.22 94.9443 1099.41 93.5155 1098.86 91.8827C1098.3 90.2335 1098.03 88.4455 1098.03 86.5187ZM1105.08 86.0044V86.5187C1105.08 87.6291 1105.18 88.6659 1105.37 89.6293C1105.57 90.5927 1105.88 91.4418 1106.31 92.1766C1106.75 92.8951 1107.32 93.4584 1108.02 93.8666C1108.72 94.2748 1109.58 94.4789 1110.59 94.4789C1111.57 94.4789 1112.41 94.2748 1113.11 93.8666C1113.82 93.4584 1114.38 92.8951 1114.8 92.1766C1115.23 91.4418 1115.54 90.5927 1115.74 89.6293C1115.95 88.6659 1116.05 87.6291 1116.05 86.5187V86.0044C1116.05 84.9267 1115.95 83.9143 1115.74 82.9672C1115.54 82.0038 1115.22 81.1547 1114.78 80.42C1114.36 79.6688 1113.79 79.081 1113.09 78.6565C1112.39 78.2319 1111.54 78.0196 1110.54 78.0196C1109.55 78.0196 1108.7 78.2319 1108 78.6565C1107.31 79.081 1106.75 79.6688 1106.31 80.42C1105.88 81.1547 1105.57 82.0038 1105.37 82.9672C1105.18 83.9143 1105.08 84.9267 1105.08 86.0044Z" fill="white"/>
</svg>
